<svg height="512pt" viewBox="0 0 512 512" width="512pt" xmlns="http://www.w3.org/2000/svg" xmlns:xlink="http://www.w3.org/1999/xlink"><linearGradient id="a" gradientUnits="userSpaceOnUse" x1="256" x2="256" y1="0" y2="512"><stop offset="0" stop-color="#8df49b"/><stop offset="1" stop-color="#589cf9"/></linearGradient><path d="m512 256c0 68.378906-26.628906 132.667969-74.980469 181.019531-48.351562 48.351563-112.640625 74.980469-181.019531 74.980469v-40c119.101562 0 216-96.898438 216-216 0-70.890625-34.195312-136.28125-91.914062-176.800781l-55.085938 55.085937v-134.285156h134.285156l-50.5625 50.5625c28.910156 21.542969 53.191406 49.097656 70.808594 80.574219 21.242188 37.949219 32.46875 81.128906 32.46875 124.863281zm-472 .050781c0-119.101562 96.898438-216 216-216v-39.9999998c-68.378906 0-132.667969 26.6289068-181.019531 74.9804688-48.351563 48.351562-74.980469 112.640625-74.980469 181.019531 0 43.734375 11.226562 86.914063 32.46875 124.863281 17.609375 31.464844 41.882812 59.011719 70.78125 80.550782l-50.535156 50.535156h134.285156v-134.285156l-55.113281 55.117187c-57.703125-40.523437-91.886719-105.902343-91.886719-176.78125zm0 0" fill="url(#a)"/></svg>